<svg width="1200" height="675" viewBox="0 0 1200 675" fill="none" xmlns="http://www.w3.org/2000/svg">
  <rect width="1200" height="675" rx="24" fill="#F3F4F6"/>
  <rect x="52" y="52" width="1096" height="571" rx="20" fill="white" stroke="#D1D5DB"/>
  <rect x="88" y="98" width="260" height="24" rx="12" fill="#D1D5DB"/>
  <rect x="88" y="146" width="420" height="16" rx="8" fill="#E5E7EB"/>
  <rect x="88" y="204" width="220" height="140" rx="16" fill="#CCFBF1"/>
  <rect x="332" y="204" width="220" height="140" rx="16" fill="#E0F2FE"/>
  <rect x="576" y="204" width="220" height="140" rx="16" fill="#FCE7F3"/>
  <rect x="820" y="204" width="292" height="302" rx="16" fill="#F9FAFB" stroke="#E5E7EB"/>
  <rect x="88" y="376" width="692" height="130" rx="16" fill="#F9FAFB" stroke="#E5E7EB"/>
  <path d="M116 468C176 410 230 420 280 430C330 440 384 494 450 470C516 446 560 380 624 386C688 392 730 435 752 450" stroke="#0F766E" stroke-width="8" stroke-linecap="round"/>
  <rect x="88" y="536" width="1024" height="18" rx="9" fill="#E5E7EB"/>
</svg>
